<mxfile host="app.diagrams.net" agent="Mozilla/5.0 (Windows NT 10.0; Win64; x64) AppleWebKit/537.36 (KHTML, like Gecko) Chrome/136.0.0.0 Safari/537.36" version="27.0.5">
  <diagram name="Page-1" id="_VxTGzy5_ys8v5zvKh58">
    <mxGraphModel dx="3268" dy="922" grid="1" gridSize="10" guides="1" tooltips="1" connect="1" arrows="1" fold="1" page="1" pageScale="1" pageWidth="850" pageHeight="1100" math="0" shadow="0">
      <root>
        <mxCell id="0" />
        <mxCell id="1" parent="0" />
        <mxCell id="RmIezIyxWX3TPZCwq36o-10" value="" style="edgeStyle=orthogonalEdgeStyle;rounded=0;orthogonalLoop=1;jettySize=auto;html=1;entryX=0.5;entryY=0;entryDx=0;entryDy=0;exitX=0.5;exitY=1;exitDx=0;exitDy=0;" edge="1" parent="1" source="RmIezIyxWX3TPZCwq36o-1" target="RmIezIyxWX3TPZCwq36o-9">
          <mxGeometry relative="1" as="geometry">
            <Array as="points">
              <mxPoint x="120" y="160" />
            </Array>
          </mxGeometry>
        </mxCell>
        <mxCell id="RmIezIyxWX3TPZCwq36o-12" value="" style="edgeStyle=orthogonalEdgeStyle;rounded=0;orthogonalLoop=1;jettySize=auto;html=1;" edge="1" parent="1" source="RmIezIyxWX3TPZCwq36o-1" target="RmIezIyxWX3TPZCwq36o-11">
          <mxGeometry relative="1" as="geometry" />
        </mxCell>
        <mxCell id="RmIezIyxWX3TPZCwq36o-1" value="&lt;span style=&quot;font-size: 14px;&quot;&gt;52&lt;/span&gt;" style="ellipse;whiteSpace=wrap;html=1;aspect=fixed;fillColor=#dae8fc;strokeColor=#6c8ebf;" vertex="1" parent="1">
          <mxGeometry x="90" y="160" width="60" height="60" as="geometry" />
        </mxCell>
        <mxCell id="RmIezIyxWX3TPZCwq36o-19" value="" style="edgeStyle=orthogonalEdgeStyle;rounded=0;orthogonalLoop=1;jettySize=auto;html=1;" edge="1" parent="1" source="RmIezIyxWX3TPZCwq36o-9" target="RmIezIyxWX3TPZCwq36o-18">
          <mxGeometry relative="1" as="geometry" />
        </mxCell>
        <mxCell id="RmIezIyxWX3TPZCwq36o-9" value="&lt;font style=&quot;font-size: 14px;&quot;&gt;56&lt;/font&gt;" style="ellipse;whiteSpace=wrap;html=1;aspect=fixed;" vertex="1" parent="1">
          <mxGeometry x="90" y="295" width="60" height="60" as="geometry" />
        </mxCell>
        <mxCell id="RmIezIyxWX3TPZCwq36o-11" value="&lt;span style=&quot;font-size: 14px;&quot;&gt;53&lt;/span&gt;" style="ellipse;whiteSpace=wrap;html=1;aspect=fixed;" vertex="1" parent="1">
          <mxGeometry x="440" y="220" width="60" height="60" as="geometry" />
        </mxCell>
        <mxCell id="RmIezIyxWX3TPZCwq36o-21" value="" style="edgeStyle=orthogonalEdgeStyle;rounded=0;orthogonalLoop=1;jettySize=auto;html=1;" edge="1" parent="1" source="RmIezIyxWX3TPZCwq36o-18" target="RmIezIyxWX3TPZCwq36o-20">
          <mxGeometry relative="1" as="geometry" />
        </mxCell>
        <mxCell id="RmIezIyxWX3TPZCwq36o-18" value="&lt;font style=&quot;font-size: 14px;&quot;&gt;58.1&lt;/font&gt;" style="ellipse;whiteSpace=wrap;html=1;aspect=fixed;" vertex="1" parent="1">
          <mxGeometry x="290" y="295" width="60" height="60" as="geometry" />
        </mxCell>
        <mxCell id="RmIezIyxWX3TPZCwq36o-23" value="" style="edgeStyle=orthogonalEdgeStyle;rounded=0;orthogonalLoop=1;jettySize=auto;html=1;" edge="1" parent="1" source="RmIezIyxWX3TPZCwq36o-20" target="RmIezIyxWX3TPZCwq36o-22">
          <mxGeometry relative="1" as="geometry" />
        </mxCell>
        <mxCell id="RmIezIyxWX3TPZCwq36o-25" value="" style="edgeStyle=orthogonalEdgeStyle;rounded=0;orthogonalLoop=1;jettySize=auto;html=1;" edge="1" parent="1" source="RmIezIyxWX3TPZCwq36o-20" target="RmIezIyxWX3TPZCwq36o-24">
          <mxGeometry relative="1" as="geometry" />
        </mxCell>
        <mxCell id="RmIezIyxWX3TPZCwq36o-20" value="&lt;font style=&quot;font-size: 14px;&quot;&gt;58.2&lt;/font&gt;" style="ellipse;whiteSpace=wrap;html=1;aspect=fixed;fillColor=#dae8fc;strokeColor=#6c8ebf;" vertex="1" parent="1">
          <mxGeometry x="290" y="460" width="60" height="60" as="geometry" />
        </mxCell>
        <mxCell id="RmIezIyxWX3TPZCwq36o-27" value="" style="edgeStyle=orthogonalEdgeStyle;rounded=0;orthogonalLoop=1;jettySize=auto;html=1;" edge="1" parent="1" source="RmIezIyxWX3TPZCwq36o-22" target="RmIezIyxWX3TPZCwq36o-26">
          <mxGeometry relative="1" as="geometry" />
        </mxCell>
        <mxCell id="RmIezIyxWX3TPZCwq36o-43" value="" style="edgeStyle=orthogonalEdgeStyle;rounded=0;orthogonalLoop=1;jettySize=auto;html=1;" edge="1" parent="1" source="RmIezIyxWX3TPZCwq36o-22" target="RmIezIyxWX3TPZCwq36o-42">
          <mxGeometry relative="1" as="geometry" />
        </mxCell>
        <mxCell id="RmIezIyxWX3TPZCwq36o-22" value="&lt;span style=&quot;font-size: 14px;&quot;&gt;76&lt;/span&gt;" style="ellipse;whiteSpace=wrap;html=1;aspect=fixed;fillColor=#dae8fc;strokeColor=#6c8ebf;" vertex="1" parent="1">
          <mxGeometry x="430" y="460" width="60" height="60" as="geometry" />
        </mxCell>
        <mxCell id="RmIezIyxWX3TPZCwq36o-50" value="" style="edgeStyle=orthogonalEdgeStyle;rounded=0;orthogonalLoop=1;jettySize=auto;html=1;" edge="1" parent="1" source="RmIezIyxWX3TPZCwq36o-24" target="RmIezIyxWX3TPZCwq36o-49">
          <mxGeometry relative="1" as="geometry" />
        </mxCell>
        <mxCell id="RmIezIyxWX3TPZCwq36o-24" value="&lt;span style=&quot;font-size: 14px;&quot;&gt;59&lt;/span&gt;" style="ellipse;whiteSpace=wrap;html=1;aspect=fixed;" vertex="1" parent="1">
          <mxGeometry x="150" y="460" width="60" height="60" as="geometry" />
        </mxCell>
        <mxCell id="RmIezIyxWX3TPZCwq36o-29" value="" style="edgeStyle=orthogonalEdgeStyle;rounded=0;orthogonalLoop=1;jettySize=auto;html=1;" edge="1" parent="1" source="RmIezIyxWX3TPZCwq36o-26" target="RmIezIyxWX3TPZCwq36o-28">
          <mxGeometry relative="1" as="geometry" />
        </mxCell>
        <mxCell id="RmIezIyxWX3TPZCwq36o-26" value="&lt;span style=&quot;font-size: 14px;&quot;&gt;77&lt;/span&gt;" style="ellipse;whiteSpace=wrap;html=1;aspect=fixed;" vertex="1" parent="1">
          <mxGeometry x="570" y="460" width="60" height="60" as="geometry" />
        </mxCell>
        <mxCell id="RmIezIyxWX3TPZCwq36o-31" value="" style="edgeStyle=orthogonalEdgeStyle;rounded=0;orthogonalLoop=1;jettySize=auto;html=1;" edge="1" parent="1" source="RmIezIyxWX3TPZCwq36o-28" target="RmIezIyxWX3TPZCwq36o-30">
          <mxGeometry relative="1" as="geometry" />
        </mxCell>
        <mxCell id="RmIezIyxWX3TPZCwq36o-28" value="&lt;span style=&quot;font-size: 14px;&quot;&gt;78&lt;/span&gt;" style="ellipse;whiteSpace=wrap;html=1;aspect=fixed;" vertex="1" parent="1">
          <mxGeometry x="710" y="460" width="60" height="60" as="geometry" />
        </mxCell>
        <mxCell id="RmIezIyxWX3TPZCwq36o-35" value="" style="edgeStyle=orthogonalEdgeStyle;rounded=0;orthogonalLoop=1;jettySize=auto;html=1;" edge="1" parent="1" source="RmIezIyxWX3TPZCwq36o-30" target="RmIezIyxWX3TPZCwq36o-34">
          <mxGeometry relative="1" as="geometry" />
        </mxCell>
        <mxCell id="RmIezIyxWX3TPZCwq36o-30" value="&lt;span style=&quot;font-size: 14px;&quot;&gt;79.1&lt;/span&gt;" style="ellipse;whiteSpace=wrap;html=1;aspect=fixed;" vertex="1" parent="1">
          <mxGeometry x="850" y="460" width="60" height="60" as="geometry" />
        </mxCell>
        <mxCell id="RmIezIyxWX3TPZCwq36o-37" value="" style="edgeStyle=orthogonalEdgeStyle;rounded=0;orthogonalLoop=1;jettySize=auto;html=1;" edge="1" parent="1" source="RmIezIyxWX3TPZCwq36o-34" target="RmIezIyxWX3TPZCwq36o-36">
          <mxGeometry relative="1" as="geometry" />
        </mxCell>
        <mxCell id="RmIezIyxWX3TPZCwq36o-48" value="" style="edgeStyle=orthogonalEdgeStyle;rounded=0;orthogonalLoop=1;jettySize=auto;html=1;" edge="1" parent="1" source="RmIezIyxWX3TPZCwq36o-34" target="RmIezIyxWX3TPZCwq36o-47">
          <mxGeometry relative="1" as="geometry" />
        </mxCell>
        <mxCell id="RmIezIyxWX3TPZCwq36o-34" value="&lt;span style=&quot;font-size: 14px;&quot;&gt;79.2&lt;/span&gt;" style="ellipse;whiteSpace=wrap;html=1;aspect=fixed;fillColor=#dae8fc;strokeColor=#6c8ebf;" vertex="1" parent="1">
          <mxGeometry x="790" y="740" width="60" height="60" as="geometry" />
        </mxCell>
        <mxCell id="RmIezIyxWX3TPZCwq36o-39" value="" style="edgeStyle=orthogonalEdgeStyle;rounded=0;orthogonalLoop=1;jettySize=auto;html=1;" edge="1" parent="1" source="RmIezIyxWX3TPZCwq36o-36" target="RmIezIyxWX3TPZCwq36o-38">
          <mxGeometry relative="1" as="geometry" />
        </mxCell>
        <mxCell id="RmIezIyxWX3TPZCwq36o-36" value="&lt;span style=&quot;font-size: 14px;&quot;&gt;80&lt;/span&gt;" style="ellipse;whiteSpace=wrap;html=1;aspect=fixed;" vertex="1" parent="1">
          <mxGeometry x="790" y="880" width="60" height="60" as="geometry" />
        </mxCell>
        <mxCell id="RmIezIyxWX3TPZCwq36o-41" value="" style="edgeStyle=orthogonalEdgeStyle;rounded=0;orthogonalLoop=1;jettySize=auto;html=1;" edge="1" parent="1" source="RmIezIyxWX3TPZCwq36o-38" target="RmIezIyxWX3TPZCwq36o-40">
          <mxGeometry relative="1" as="geometry" />
        </mxCell>
        <mxCell id="RmIezIyxWX3TPZCwq36o-45" value="" style="edgeStyle=orthogonalEdgeStyle;rounded=0;orthogonalLoop=1;jettySize=auto;html=1;" edge="1" parent="1" source="RmIezIyxWX3TPZCwq36o-38" target="RmIezIyxWX3TPZCwq36o-44">
          <mxGeometry relative="1" as="geometry" />
        </mxCell>
        <mxCell id="RmIezIyxWX3TPZCwq36o-38" value="&lt;span style=&quot;font-size: 14px;&quot;&gt;81&lt;/span&gt;" style="ellipse;whiteSpace=wrap;html=1;aspect=fixed;fillColor=#dae8fc;strokeColor=#6c8ebf;" vertex="1" parent="1">
          <mxGeometry x="790" y="1020" width="60" height="60" as="geometry" />
        </mxCell>
        <mxCell id="RmIezIyxWX3TPZCwq36o-40" value="&lt;span style=&quot;font-size: 14px;&quot;&gt;82&lt;/span&gt;" style="ellipse;whiteSpace=wrap;html=1;aspect=fixed;" vertex="1" parent="1">
          <mxGeometry x="930" y="1020" width="60" height="60" as="geometry" />
        </mxCell>
        <mxCell id="RmIezIyxWX3TPZCwq36o-42" value="&lt;span style=&quot;font-size: 14px;&quot;&gt;87&lt;/span&gt;" style="ellipse;whiteSpace=wrap;html=1;aspect=fixed;" vertex="1" parent="1">
          <mxGeometry x="430" y="320" width="60" height="60" as="geometry" />
        </mxCell>
        <mxCell id="RmIezIyxWX3TPZCwq36o-44" value="&lt;span style=&quot;font-size: 14px;&quot;&gt;79.3&lt;/span&gt;" style="ellipse;whiteSpace=wrap;html=1;aspect=fixed;" vertex="1" parent="1">
          <mxGeometry x="640" y="1020" width="60" height="60" as="geometry" />
        </mxCell>
        <mxCell id="RmIezIyxWX3TPZCwq36o-46" value="" style="endArrow=classic;html=1;rounded=0;exitX=0.5;exitY=0;exitDx=0;exitDy=0;entryX=0;entryY=0.5;entryDx=0;entryDy=0;" edge="1" parent="1" source="RmIezIyxWX3TPZCwq36o-44" target="RmIezIyxWX3TPZCwq36o-34">
          <mxGeometry width="50" height="50" relative="1" as="geometry">
            <mxPoint x="480" y="810" as="sourcePoint" />
            <mxPoint x="690" y="730" as="targetPoint" />
            <Array as="points">
              <mxPoint x="670" y="770" />
            </Array>
          </mxGeometry>
        </mxCell>
        <mxCell id="RmIezIyxWX3TPZCwq36o-47" value="&lt;span style=&quot;font-size: 14px;&quot;&gt;90&lt;/span&gt;" style="ellipse;whiteSpace=wrap;html=1;aspect=fixed;" vertex="1" parent="1">
          <mxGeometry x="930" y="740" width="60" height="60" as="geometry" />
        </mxCell>
        <mxCell id="RmIezIyxWX3TPZCwq36o-52" value="" style="edgeStyle=orthogonalEdgeStyle;rounded=0;orthogonalLoop=1;jettySize=auto;html=1;" edge="1" parent="1" source="RmIezIyxWX3TPZCwq36o-49" target="RmIezIyxWX3TPZCwq36o-51">
          <mxGeometry relative="1" as="geometry" />
        </mxCell>
        <mxCell id="RmIezIyxWX3TPZCwq36o-54" value="" style="edgeStyle=orthogonalEdgeStyle;rounded=0;orthogonalLoop=1;jettySize=auto;html=1;entryX=1;entryY=0.5;entryDx=0;entryDy=0;exitX=0.5;exitY=0;exitDx=0;exitDy=0;" edge="1" parent="1" source="RmIezIyxWX3TPZCwq36o-49" target="RmIezIyxWX3TPZCwq36o-53">
          <mxGeometry relative="1" as="geometry">
            <mxPoint x="120" y="360" as="sourcePoint" />
            <mxPoint x="-310" y="160" as="targetPoint" />
          </mxGeometry>
        </mxCell>
        <mxCell id="RmIezIyxWX3TPZCwq36o-49" value="&lt;span style=&quot;font-size: 14px;&quot;&gt;60&lt;/span&gt;" style="ellipse;whiteSpace=wrap;html=1;aspect=fixed;fillColor=#dae8fc;strokeColor=#6c8ebf;" vertex="1" parent="1">
          <mxGeometry x="10" y="460" width="60" height="60" as="geometry" />
        </mxCell>
        <mxCell id="RmIezIyxWX3TPZCwq36o-56" value="" style="edgeStyle=orthogonalEdgeStyle;rounded=0;orthogonalLoop=1;jettySize=auto;html=1;" edge="1" parent="1" source="RmIezIyxWX3TPZCwq36o-51" target="RmIezIyxWX3TPZCwq36o-55">
          <mxGeometry relative="1" as="geometry" />
        </mxCell>
        <mxCell id="RmIezIyxWX3TPZCwq36o-51" value="&lt;span style=&quot;font-size: 14px;&quot;&gt;64&lt;/span&gt;" style="ellipse;whiteSpace=wrap;html=1;aspect=fixed;fillColor=#dae8fc;strokeColor=#6c8ebf;" vertex="1" parent="1">
          <mxGeometry x="-130" y="460" width="60" height="60" as="geometry" />
        </mxCell>
        <mxCell id="RmIezIyxWX3TPZCwq36o-53" value="&lt;span style=&quot;font-size: 14px;&quot;&gt;61&lt;/span&gt;" style="ellipse;whiteSpace=wrap;html=1;aspect=fixed;" vertex="1" parent="1">
          <mxGeometry x="-280" y="410" width="60" height="60" as="geometry" />
        </mxCell>
        <mxCell id="RmIezIyxWX3TPZCwq36o-55" value="&lt;span style=&quot;font-size: 14px;&quot;&gt;65&lt;/span&gt;" style="ellipse;whiteSpace=wrap;html=1;aspect=fixed;" vertex="1" parent="1">
          <mxGeometry x="-200" y="580" width="60" height="60" as="geometry" />
        </mxCell>
        <mxCell id="RmIezIyxWX3TPZCwq36o-60" value="" style="edgeStyle=orthogonalEdgeStyle;rounded=0;orthogonalLoop=1;jettySize=auto;html=1;" edge="1" parent="1" source="RmIezIyxWX3TPZCwq36o-57" target="RmIezIyxWX3TPZCwq36o-59">
          <mxGeometry relative="1" as="geometry" />
        </mxCell>
        <mxCell id="RmIezIyxWX3TPZCwq36o-62" value="" style="edgeStyle=orthogonalEdgeStyle;rounded=0;orthogonalLoop=1;jettySize=auto;html=1;" edge="1" parent="1" source="RmIezIyxWX3TPZCwq36o-57" target="RmIezIyxWX3TPZCwq36o-61">
          <mxGeometry relative="1" as="geometry" />
        </mxCell>
        <mxCell id="RmIezIyxWX3TPZCwq36o-57" value="&lt;span style=&quot;font-size: 14px;&quot;&gt;68&lt;/span&gt;" style="ellipse;whiteSpace=wrap;html=1;aspect=fixed;fillColor=#dae8fc;strokeColor=#6c8ebf;" vertex="1" parent="1">
          <mxGeometry x="40" y="690" width="60" height="60" as="geometry" />
        </mxCell>
        <mxCell id="RmIezIyxWX3TPZCwq36o-59" value="&lt;span style=&quot;font-size: 14px;&quot;&gt;69&lt;/span&gt;" style="ellipse;whiteSpace=wrap;html=1;aspect=fixed;" vertex="1" parent="1">
          <mxGeometry x="-50" y="780" width="60" height="60" as="geometry" />
        </mxCell>
        <mxCell id="RmIezIyxWX3TPZCwq36o-61" value="&lt;span style=&quot;font-size: 14px;&quot;&gt;72&lt;/span&gt;" style="ellipse;whiteSpace=wrap;html=1;aspect=fixed;" vertex="1" parent="1">
          <mxGeometry x="120" y="780" width="60" height="60" as="geometry" />
        </mxCell>
        <mxCell id="RmIezIyxWX3TPZCwq36o-63" value="&lt;span style=&quot;font-size: 14px;&quot;&gt;58.3&lt;/span&gt;" style="ellipse;whiteSpace=wrap;html=1;aspect=fixed;" vertex="1" parent="1">
          <mxGeometry x="40" y="900" width="60" height="60" as="geometry" />
        </mxCell>
        <mxCell id="RmIezIyxWX3TPZCwq36o-64" value="" style="endArrow=classic;html=1;rounded=0;entryX=1;entryY=0.5;entryDx=0;entryDy=0;exitX=0.5;exitY=1;exitDx=0;exitDy=0;" edge="1" parent="1" source="RmIezIyxWX3TPZCwq36o-61" target="RmIezIyxWX3TPZCwq36o-63">
          <mxGeometry width="50" height="50" relative="1" as="geometry">
            <mxPoint x="510" y="850" as="sourcePoint" />
            <mxPoint x="560" y="800" as="targetPoint" />
            <Array as="points">
              <mxPoint x="150" y="930" />
            </Array>
          </mxGeometry>
        </mxCell>
        <mxCell id="RmIezIyxWX3TPZCwq36o-65" value="" style="endArrow=classic;html=1;rounded=0;entryX=0;entryY=0.5;entryDx=0;entryDy=0;exitX=0.5;exitY=1;exitDx=0;exitDy=0;" edge="1" parent="1" source="RmIezIyxWX3TPZCwq36o-59" target="RmIezIyxWX3TPZCwq36o-63">
          <mxGeometry width="50" height="50" relative="1" as="geometry">
            <mxPoint x="510" y="850" as="sourcePoint" />
            <mxPoint x="560" y="800" as="targetPoint" />
            <Array as="points">
              <mxPoint x="-20" y="930" />
            </Array>
          </mxGeometry>
        </mxCell>
        <mxCell id="RmIezIyxWX3TPZCwq36o-66" value="" style="endArrow=classic;html=1;rounded=0;entryX=0.5;entryY=1;entryDx=0;entryDy=0;exitX=0.5;exitY=1;exitDx=0;exitDy=0;" edge="1" parent="1" source="RmIezIyxWX3TPZCwq36o-63" target="RmIezIyxWX3TPZCwq36o-20">
          <mxGeometry width="50" height="50" relative="1" as="geometry">
            <mxPoint x="80" y="1000" as="sourcePoint" />
            <mxPoint x="330" y="560" as="targetPoint" />
            <Array as="points">
              <mxPoint x="70" y="1000" />
              <mxPoint x="320" y="1000" />
            </Array>
          </mxGeometry>
        </mxCell>
        <mxCell id="RmIezIyxWX3TPZCwq36o-67" value="" style="endArrow=classic;html=1;rounded=0;exitX=0.5;exitY=1;exitDx=0;exitDy=0;" edge="1" parent="1" source="RmIezIyxWX3TPZCwq36o-55">
          <mxGeometry width="50" height="50" relative="1" as="geometry">
            <mxPoint x="340" y="810" as="sourcePoint" />
            <mxPoint x="40" y="699" as="targetPoint" />
            <Array as="points">
              <mxPoint x="-170" y="699" />
            </Array>
          </mxGeometry>
        </mxCell>
        <mxCell id="RmIezIyxWX3TPZCwq36o-68" value="&lt;span style=&quot;font-size: 14px;&quot;&gt;92&lt;/span&gt;" style="ellipse;whiteSpace=wrap;html=1;aspect=fixed;" vertex="1" parent="1">
          <mxGeometry x="1030" y="530" width="60" height="60" as="geometry" />
        </mxCell>
        <mxCell id="RmIezIyxWX3TPZCwq36o-69" value="" style="endArrow=classic;html=1;rounded=0;entryX=0.5;entryY=0;entryDx=0;entryDy=0;exitX=1;exitY=0.5;exitDx=0;exitDy=0;" edge="1" parent="1" source="RmIezIyxWX3TPZCwq36o-11" target="RmIezIyxWX3TPZCwq36o-68">
          <mxGeometry width="50" height="50" relative="1" as="geometry">
            <mxPoint x="340" y="550" as="sourcePoint" />
            <mxPoint x="390" y="500" as="targetPoint" />
            <Array as="points">
              <mxPoint x="1060" y="250" />
            </Array>
          </mxGeometry>
        </mxCell>
        <mxCell id="RmIezIyxWX3TPZCwq36o-71" value="" style="endArrow=classic;html=1;rounded=0;exitX=0.5;exitY=1;exitDx=0;exitDy=0;entryX=0.5;entryY=1;entryDx=0;entryDy=0;" edge="1" parent="1" source="RmIezIyxWX3TPZCwq36o-53" target="RmIezIyxWX3TPZCwq36o-68">
          <mxGeometry width="50" height="50" relative="1" as="geometry">
            <mxPoint x="80" y="710" as="sourcePoint" />
            <mxPoint x="-490" y="970" as="targetPoint" />
            <Array as="points">
              <mxPoint x="-250" y="1100" />
              <mxPoint x="1060" y="1100" />
            </Array>
          </mxGeometry>
        </mxCell>
        <mxCell id="RmIezIyxWX3TPZCwq36o-72" value="" style="endArrow=classic;html=1;rounded=0;exitX=1;exitY=0.5;exitDx=0;exitDy=0;entryX=0;entryY=0;entryDx=0;entryDy=0;" edge="1" parent="1" source="RmIezIyxWX3TPZCwq36o-42" target="RmIezIyxWX3TPZCwq36o-68">
          <mxGeometry width="50" height="50" relative="1" as="geometry">
            <mxPoint x="630" y="750" as="sourcePoint" />
            <mxPoint x="1050" y="530" as="targetPoint" />
            <Array as="points">
              <mxPoint x="1039" y="350" />
            </Array>
          </mxGeometry>
        </mxCell>
        <mxCell id="RmIezIyxWX3TPZCwq36o-73" value="" style="endArrow=classic;html=1;rounded=0;entryX=0;entryY=1;entryDx=0;entryDy=0;exitX=1;exitY=0.5;exitDx=0;exitDy=0;" edge="1" parent="1" source="RmIezIyxWX3TPZCwq36o-40" target="RmIezIyxWX3TPZCwq36o-68">
          <mxGeometry width="50" height="50" relative="1" as="geometry">
            <mxPoint x="630" y="750" as="sourcePoint" />
            <mxPoint x="680" y="700" as="targetPoint" />
            <Array as="points">
              <mxPoint x="1039" y="1050" />
            </Array>
          </mxGeometry>
        </mxCell>
        <mxCell id="RmIezIyxWX3TPZCwq36o-74" value="" style="endArrow=classic;html=1;rounded=0;entryX=0;entryY=0.5;entryDx=0;entryDy=0;exitX=0.5;exitY=0;exitDx=0;exitDy=0;" edge="1" parent="1" source="RmIezIyxWX3TPZCwq36o-47" target="RmIezIyxWX3TPZCwq36o-68">
          <mxGeometry width="50" height="50" relative="1" as="geometry">
            <mxPoint x="630" y="750" as="sourcePoint" />
            <mxPoint x="680" y="700" as="targetPoint" />
            <Array as="points">
              <mxPoint x="960" y="710" />
              <mxPoint x="960" y="560" />
            </Array>
          </mxGeometry>
        </mxCell>
        <mxCell id="RmIezIyxWX3TPZCwq36o-75" value="" style="endArrow=classic;html=1;rounded=0;entryX=0.5;entryY=0;entryDx=0;entryDy=0;exitX=0.5;exitY=1;exitDx=0;exitDy=0;" edge="1" parent="1" source="RmIezIyxWX3TPZCwq36o-51" target="RmIezIyxWX3TPZCwq36o-57">
          <mxGeometry width="50" height="50" relative="1" as="geometry">
            <mxPoint x="220" y="750" as="sourcePoint" />
            <mxPoint x="270" y="700" as="targetPoint" />
            <Array as="points">
              <mxPoint x="-100" y="600" />
              <mxPoint x="70" y="600" />
            </Array>
          </mxGeometry>
        </mxCell>
        <mxCell id="RmIezIyxWX3TPZCwq36o-76" value="&lt;font style=&quot;font-size: 15px;&quot;&gt;T&lt;/font&gt;" style="text;html=1;align=center;verticalAlign=middle;whiteSpace=wrap;rounded=0;" vertex="1" parent="1">
          <mxGeometry x="230" y="450" width="60" height="30" as="geometry" />
        </mxCell>
        <mxCell id="RmIezIyxWX3TPZCwq36o-77" value="&lt;span style=&quot;font-size: 15px;&quot;&gt;F&lt;/span&gt;" style="text;html=1;align=center;verticalAlign=middle;whiteSpace=wrap;rounded=0;" vertex="1" parent="1">
          <mxGeometry x="365" y="450" width="60" height="30" as="geometry" />
        </mxCell>
        <mxCell id="RmIezIyxWX3TPZCwq36o-78" value="&lt;font style=&quot;font-size: 15px;&quot;&gt;T&lt;/font&gt;" style="text;html=1;align=center;verticalAlign=middle;whiteSpace=wrap;rounded=0;" vertex="1" parent="1">
          <mxGeometry x="-40" y="400" width="60" height="30" as="geometry" />
        </mxCell>
        <mxCell id="RmIezIyxWX3TPZCwq36o-79" value="&lt;span style=&quot;font-size: 15px;&quot;&gt;F&lt;/span&gt;" style="text;html=1;align=center;verticalAlign=middle;whiteSpace=wrap;rounded=0;" vertex="1" parent="1">
          <mxGeometry x="-40" y="460" width="60" height="30" as="geometry" />
        </mxCell>
        <mxCell id="RmIezIyxWX3TPZCwq36o-80" value="&lt;font style=&quot;font-size: 15px;&quot;&gt;T&lt;/font&gt;" style="text;html=1;align=center;verticalAlign=middle;whiteSpace=wrap;rounded=0;" vertex="1" parent="1">
          <mxGeometry x="-10" y="730" width="60" height="30" as="geometry" />
        </mxCell>
        <mxCell id="RmIezIyxWX3TPZCwq36o-81" value="&lt;span style=&quot;font-size: 15px;&quot;&gt;F&lt;/span&gt;" style="text;html=1;align=center;verticalAlign=middle;whiteSpace=wrap;rounded=0;" vertex="1" parent="1">
          <mxGeometry x="90" y="730" width="60" height="30" as="geometry" />
        </mxCell>
        <mxCell id="RmIezIyxWX3TPZCwq36o-82" value="&lt;font style=&quot;font-size: 15px;&quot;&gt;T&lt;/font&gt;" style="text;html=1;align=center;verticalAlign=middle;whiteSpace=wrap;rounded=0;" vertex="1" parent="1">
          <mxGeometry x="-220" y="510" width="60" height="30" as="geometry" />
        </mxCell>
        <mxCell id="RmIezIyxWX3TPZCwq36o-83" value="&lt;span style=&quot;font-size: 15px;&quot;&gt;F&lt;/span&gt;" style="text;html=1;align=center;verticalAlign=middle;whiteSpace=wrap;rounded=0;" vertex="1" parent="1">
          <mxGeometry x="-100" y="530" width="60" height="30" as="geometry" />
        </mxCell>
        <mxCell id="RmIezIyxWX3TPZCwq36o-85" value="&lt;font style=&quot;font-size: 15px;&quot;&gt;T&lt;/font&gt;" style="text;html=1;align=center;verticalAlign=middle;whiteSpace=wrap;rounded=0;" vertex="1" parent="1">
          <mxGeometry x="500" y="460" width="60" height="30" as="geometry" />
        </mxCell>
        <mxCell id="RmIezIyxWX3TPZCwq36o-86" value="&lt;span style=&quot;font-size: 15px;&quot;&gt;F&lt;/span&gt;" style="text;html=1;align=center;verticalAlign=middle;whiteSpace=wrap;rounded=0;" vertex="1" parent="1">
          <mxGeometry x="450" y="400" width="60" height="30" as="geometry" />
        </mxCell>
        <mxCell id="RmIezIyxWX3TPZCwq36o-87" value="&lt;font style=&quot;font-size: 15px;&quot;&gt;T&lt;/font&gt;" style="text;html=1;align=center;verticalAlign=middle;whiteSpace=wrap;rounded=0;" vertex="1" parent="1">
          <mxGeometry x="820" y="820" width="60" height="30" as="geometry" />
        </mxCell>
        <mxCell id="RmIezIyxWX3TPZCwq36o-88" value="&lt;span style=&quot;font-size: 15px;&quot;&gt;F&lt;/span&gt;" style="text;html=1;align=center;verticalAlign=middle;whiteSpace=wrap;rounded=0;" vertex="1" parent="1">
          <mxGeometry x="860" y="730" width="60" height="30" as="geometry" />
        </mxCell>
        <mxCell id="RmIezIyxWX3TPZCwq36o-89" value="&lt;span style=&quot;font-size: 15px;&quot;&gt;T&lt;/span&gt;" style="text;html=1;align=center;verticalAlign=middle;whiteSpace=wrap;rounded=0;" vertex="1" parent="1">
          <mxGeometry x="860" y="1010" width="60" height="30" as="geometry" />
        </mxCell>
        <mxCell id="RmIezIyxWX3TPZCwq36o-90" value="&lt;span style=&quot;font-size: 15px;&quot;&gt;F&lt;/span&gt;" style="text;html=1;align=center;verticalAlign=middle;whiteSpace=wrap;rounded=0;" vertex="1" parent="1">
          <mxGeometry x="710" y="1010" width="60" height="30" as="geometry" />
        </mxCell>
        <mxCell id="RmIezIyxWX3TPZCwq36o-91" value="&lt;font style=&quot;font-size: 15px;&quot;&gt;T&lt;/font&gt;" style="text;html=1;align=center;verticalAlign=middle;whiteSpace=wrap;rounded=0;" vertex="1" parent="1">
          <mxGeometry x="160" y="160" width="60" height="30" as="geometry" />
        </mxCell>
        <mxCell id="RmIezIyxWX3TPZCwq36o-92" value="&lt;span style=&quot;font-size: 15px;&quot;&gt;F&lt;/span&gt;" style="text;html=1;align=center;verticalAlign=middle;whiteSpace=wrap;rounded=0;" vertex="1" parent="1">
          <mxGeometry x="110" y="235" width="60" height="30" as="geometry" />
        </mxCell>
      </root>
    </mxGraphModel>
  </diagram>
</mxfile>
